<?xml version="1.0" encoding="utf-8"?>
<!DOCTYPE svg PUBLIC "-//W3C//DTD SVG 1.1//EN" "http://www.w3.org/Graphics/SVG/1.1/DTD/svg11.dtd">
<svg version="1.1" xmlns="http://www.w3.org/2000/svg" width="64" height="64" viewBox="0 0 64 64" enable-background="new 0 0 64 64">
 <path fill="#ffffff" d="M0,0v64h64V0H0z M51.346,22.967C52.605,43.277,30.128,57.408,12,45.832
	c4.382,0.359,9.505-1.102,13.049-3.708c-4.197-0.354-7.373-3.122-8.315-6.41c1.305,0.164,2.697,0.313,3.851-0.192
	c-4.328-1.215-6.875-4.4-6.928-9.04c1.311,0.716,2.348,1.286,3.925,1.161c-4.082-3.104-5.045-8.266-2.618-12.092
	c4.59,5.679,11.207,9.109,18.478,9.577c-1.099-10.735,9.428-14.051,15.593-8.421c2.235-0.179,4.241-1.289,5.873-2.358
	c-0.63,2.222-2.289,3.993-3.876,5.141c1.91-0.026,3.33-0.57,4.969-1.451C55.236,19.715,53.109,22.105,51.346,22.967z"/>
</svg>
