<?xml version="1.0" standalone="no"?>
<!DOCTYPE svg PUBLIC "-//W3C//DTD SVG 20010904//EN"
 "http://www.w3.org/TR/2001/REC-SVG-20010904/DTD/svg10.dtd">
<svg version="1.0" xmlns="http://www.w3.org/2000/svg"
 width="512.000000pt" height="512.000000pt" viewBox="0 0 512.000000 512.000000"
 preserveAspectRatio="xMidYMid meet">
<metadata>
Created by potrace 1.14, written by Peter Selinger 2001-2017
</metadata>
<g transform="translate(0.000000,512.000000) scale(0.100000,-0.100000)"
fill="#000000" stroke="none">
<path d="M2394 5061 c-546 -224 -1148 -608 -1686 -1078 -223 -194 -541 -523
-673 -697 -29 -38 -29 -41 -27 -140 9 -306 93 -793 212 -1216 49 -176 138
-448 165 -507 8 -17 15 -35 15 -40 0 -9 34 -98 65 -168 7 -16 34 -82 60 -145
75 -182 235 -501 333 -665 87 -145 117 -185 149 -200 89 -43 446 -116 753
-156 457 -58 1121 -56 1615 7 261 32 684 118 747 150 68 35 337 522 488 884
256 614 437 1316 489 1905 19 210 20 229 8 257 -7 15 -51 73 -98 130 -458 549
-1117 1073 -1834 1461 -221 120 -577 278 -621 276 -11 0 -83 -27 -160 -58z
m300 -133 c805 -343 1709 -1010 2226 -1643 l63 -77 -2 -62 c-2 -90 -29 -319
-57 -495 -96 -604 -316 -1295 -584 -1836 -90 -182 -242 -450 -274 -483 -25
-25 -336 -93 -601 -131 -601 -85 -1296 -84 -1868 4 -171 27 -463 89 -513 110
-77 32 -405 678 -561 1104 -192 524 -319 1041 -367 1491 -9 80 -16 180 -17
222 l-2 77 74 88 c122 145 513 530 684 672 422 351 825 620 1240 827 184 91
395 183 424 184 8 0 69 -23 135 -52z"/>
<path d="M2374 4814 c-308 -120 -790 -405 -1148 -677 -367 -280 -792 -684
-798 -757 -1 -18 -44 -85 -92 -145 l-57 -70 6 -95 c13 -200 13 -236 3 -280
-14 -63 -11 -105 16 -260 65 -362 183 -775 324 -1131 56 -142 76 -182 100
-208 43 -45 63 -78 158 -261 120 -231 128 -246 206 -372 55 -90 63 -99 101
-109 23 -6 60 -16 82 -24 22 -7 63 -16 90 -20 28 -4 59 -11 71 -15 31 -12 313
-58 464 -76 330 -39 845 -45 1140 -14 58 7 146 16 195 21 161 16 382 54 555
95 151 35 175 43 188 61 61 82 194 315 297 523 32 63 61 117 64 120 3 3 24 32
46 65 22 33 43 62 47 65 12 9 113 276 167 442 94 288 176 616 220 883 23 137
26 174 18 195 -13 33 -14 111 -4 247 l9 141 -28 39 c-16 21 -41 53 -57 72 -29
34 -62 99 -59 114 1 4 -2 7 -8 7 -5 0 -10 10 -10 22 0 30 -336 363 -525 519
-439 363 -908 660 -1358 859 l-119 52 -112 2 c-104 1 -119 -1 -192 -30z m229
-1296 c16 -57 31 -112 34 -123 5 -18 3 -17 -22 5 l-27 25 6 -65 c12 -133 30
-561 31 -725 0 -148 -3 -179 -22 -240 -12 -38 -29 -79 -38 -90 -14 -19 -15
-16 -8 35 18 128 -2 727 -37 1110 -8 91 -7 97 16 133 13 20 28 37 32 37 4 0
20 -46 35 -102z m207 45 c0 -10 14 -63 30 -118 35 -118 36 -128 9 -96 -11 13
-21 22 -24 19 -2 -2 0 -55 5 -118 5 -63 10 -130 10 -147 0 -18 5 -33 10 -33 6
0 31 20 55 45 l45 45 -20 20 c-25 25 -20 52 18 93 30 31 48 34 74 10 19 -17
19 -16 12 12 -3 17 -7 32 -7 35 -2 8 47 80 54 80 7 0 99 -254 99 -273 0 -6
-13 2 -30 18 -16 16 -32 26 -34 24 -3 -3 -1 -70 4 -149 5 -80 10 -167 10 -193
0 -34 4 -47 13 -45 22 7 215 251 244 308 23 44 29 51 31 32 2 -12 -2 -46 -8
-75 -9 -45 -25 -69 -117 -177 -172 -203 -156 -169 -144 -307 6 -65 11 -145 11
-178 0 -75 7 -87 45 -77 22 6 36 20 53 52 12 24 22 52 22 61 0 11 -9 19 -22
21 -17 2 -23 10 -23 27 0 32 28 49 49 32 19 -16 22 -92 5 -123 -6 -11 -8 -22
-5 -25 8 -9 45 58 63 115 9 29 25 61 35 72 33 35 73 -3 62 -59 -7 -36 -21 -41
-26 -9 -6 43 -27 28 -62 -45 -44 -93 -91 -137 -145 -137 l-39 0 -4 -157 c-3
-139 -7 -164 -27 -211 -31 -69 -104 -135 -182 -163 -65 -24 -64 -22 -74 -122
-6 -66 -22 -103 -70 -163 l-34 -41 22 -25 c12 -15 32 -31 44 -37 51 -26 160
-5 264 50 146 78 329 299 329 398 0 54 -12 61 -112 61 -109 0 -128 13 -128 90
0 109 37 200 82 200 51 0 124 -79 160 -172 11 -29 22 -85 25 -123 12 -160 -71
-321 -250 -482 -83 -75 -143 -110 -225 -131 -55 -13 -71 -13 -115 -2 -61 15
-101 42 -128 87 l-20 32 -67 -46 c-135 -93 -263 -137 -392 -137 -100 0 -132
14 -184 78 -49 59 -65 132 -47 218 14 69 71 198 98 219 14 12 16 12 10 -1 -3
-8 -18 -44 -34 -80 -23 -54 -28 -79 -28 -147 0 -91 13 -118 76 -161 31 -22 42
-23 129 -19 106 5 200 31 324 91 101 49 106 55 106 129 0 34 3 72 6 85 12 43
24 21 24 -42 0 -36 4 -67 9 -70 11 -7 79 66 91 98 4 12 5 46 2 76 l-7 53 -83
1 c-94 1 -112 13 -112 72 0 73 64 224 94 224 19 0 70 -62 103 -128 l28 -54 51
5 c63 6 144 40 175 73 22 23 22 27 16 186 -8 199 -27 455 -36 487 -7 22 -14
16 -92 -79 -46 -56 -135 -164 -198 -239 -163 -194 -221 -268 -221 -281 0 -6
12 -32 28 -58 22 -38 27 -59 27 -112 -1 -119 -58 -202 -200 -287 -89 -54 -141
-51 -165 7 -20 48 6 116 111 291 l90 150 -38 52 -38 52 -6 -75 c-12 -140 -73
-250 -150 -270 -75 -20 -125 26 -135 126 l-7 61 -61 -46 c-117 -88 -222 -117
-316 -86 -111 37 -160 117 -168 276 l-5 96 -42 11 c-46 12 -96 55 -122 106
-37 70 -14 179 60 288 45 67 51 60 14 -14 -40 -79 -45 -169 -11 -215 21 -28
80 -73 95 -73 5 0 9 37 10 83 0 45 4 174 8 287 5 113 6 207 4 209 -1 3 -13 -5
-26 -17 -13 -12 -26 -22 -30 -22 -4 0 19 51 50 113 l58 112 3 -298 c2 -278 3
-298 20 -293 9 3 29 8 44 12 19 4 33 19 48 48 27 56 26 84 -2 88 -28 4 -34 27
-14 53 36 49 72 -42 47 -119 l-11 -31 25 28 c13 15 31 51 40 79 8 28 22 62 30
75 32 48 83 13 70 -48 -7 -33 -25 -39 -25 -9 0 41 -30 19 -61 -44 -51 -105
-75 -127 -143 -137 -33 -4 -63 -14 -67 -21 -5 -7 -9 -46 -9 -87 l0 -74 83 6
c45 3 118 15 162 27 213 57 315 90 315 101 0 4 -85 126 -189 271 -103 145
-199 283 -211 308 -13 25 -34 59 -47 76 -23 31 -23 31 -6 78 10 25 20 46 24
46 3 0 32 -23 64 -51 32 -28 83 -69 114 -92 l56 -42 -51 -5 -52 -5 184 -254
c101 -140 198 -276 216 -302 18 -27 35 -49 38 -49 3 0 2 55 -2 123 -4 67 -14
284 -23 482 -9 198 -20 380 -25 405 -8 41 -6 49 22 93 17 26 32 46 33 45 4 -4
75 -256 75 -265 0 -3 -11 4 -25 17 l-26 24 6 -94 c18 -294 35 -649 36 -745 1
-190 6 -208 79 -312 36 -51 67 -92 70 -93 3 0 58 64 122 143 64 78 187 223
272 322 l155 180 1 57 c0 72 -18 398 -26 458 l-6 44 -23 -48 c-28 -58 -85
-119 -133 -142 l-34 -16 7 -176 c7 -191 -2 -273 -44 -367 -22 -49 -48 -65 -30
-17 27 70 21 280 -26 841 l-13 164 25 38 c28 42 43 49 43 22z m-657 -134 c36
-10 38 -12 31 -42 -10 -49 -20 -70 -44 -95 -21 -22 -37 -31 -87 -46 -34 -11
-28 10 6 24 16 6 37 20 46 30 15 17 15 19 -4 25 -31 9 -80 -3 -125 -32 l-39
-25 6 23 c3 13 9 41 12 61 13 68 103 104 198 77z m1455 -621 c15 -49 26 -88
23 -88 -3 0 -15 10 -28 22 l-24 22 5 -39 c7 -49 33 -342 46 -525 13 -175 1
-278 -42 -382 -22 -52 -43 -66 -31 -20 16 54 5 420 -21 727 -15 171 -29 320
-31 331 -3 12 7 48 22 80 l26 59 14 -50 c7 -27 26 -89 41 -137z m-194 52 c21
-8 24 -13 17 -32 -7 -19 -14 -22 -50 -19 -37 2 -42 0 -39 -15 2 -10 16 -25 31
-34 25 -14 30 -13 68 8 22 13 42 22 44 20 2 -2 -3 -17 -10 -35 -9 -21 -22 -33
-43 -38 -16 -3 -48 -22 -70 -41 -51 -43 -59 -43 -32 0 l21 34 -25 25 c-14 14
-23 33 -21 43 2 11 6 32 10 47 8 40 51 56 99 37z m314 -339 c-22 -44 -37 -133
-22 -130 46 8 71 -39 54 -101 -13 -47 -32 -64 -65 -56 -32 8 -39 38 -32 131 5
73 33 152 64 187 24 27 25 17 1 -31z"/>
<path d="M2118 2287 c-73 -89 -155 -173 -162 -166 -2 2 29 44 70 93 72 87 84
106 65 106 -5 0 -55 -19 -112 -41 -168 -67 -235 -87 -309 -95 l-70 -7 0 -41
c0 -224 217 -302 434 -156 26 18 61 51 78 74 l31 41 -6 -56 c-6 -65 7 -136 30
-161 24 -27 104 -25 129 3 16 18 19 40 22 165 l4 144 -64 90 c-34 49 -65 89
-68 89 -3 0 -35 -37 -72 -82z"/>
<path d="M2442 1858 c-66 -92 -127 -211 -118 -234 14 -37 139 10 214 82 42 40
44 46 39 83 -5 40 -54 132 -73 138 -5 2 -33 -30 -62 -69z"/>
</g>
</svg>
