<?xml version="1.0" encoding="utf-8"?>
<!DOCTYPE svg PUBLIC "-//W3C//DTD SVG 1.1//EN" "http://www.w3.org/Graphics/SVG/1.1/DTD/svg11.dtd">
<svg version="1.1" xmlns="http://www.w3.org/2000/svg" width="64" height="64" viewBox="0 0 64 64" enable-background="new 0 0 64 64">
 <g>
  <path fill="#ffffff" d="M27.666,37.743c-0.482-0.054-0.992-0.017-1.474,0.001c0.228-0.008-0.017,0.004-0.081,0.006
		c-2.637,0.158-5.815,0.665-7.279,3.137c-1.112,1.893-0.062,4.258,1.571,5.415c1.542,1.095,3.499,1.435,5.353,1.474
		c1.742,0.037,3.728-0.146,5.138-1.282c1.32-1.07,1.961-2.908,1.282-4.529C31.372,40.078,29.27,38.875,27.666,37.743z"/>
  <path fill="#ffffff" d="M26.111,37.75c0.026-0.001,0.054-0.004,0.081-0.006C26.086,37.75,26.083,37.751,26.111,37.75z"/>
  <path fill="#ffffff" d="M0,0v64h64V0H0z M35.998,45.018c-0.576,1.146-1.434,2.168-2.538,3.047C30.768,50.229,27.182,51,23.798,51
		c-2.78,0-5.747-0.504-8.037-2.186c-0.925-0.682-1.625-1.469-2.078-2.354c-1.005-1.946-0.768-4.024,0.16-5.946
		c0.573-1.188,1.616-2.236,3.11-3.106c2.415-1.46,5.394-1.979,8.173-2.167c-0.733-1.104-1.139-2.448-0.725-3.766
		c-1.419,0.045-2.852-0.106-4.166-0.674c-1.049-0.453-1.943-1.063-2.662-1.81c-0.719-0.745-1.273-1.609-1.646-2.577
		c-0.83-2.121-0.688-4.426,0.248-6.487c0.541-1.189,1.359-2.262,2.431-3.193C21.83,14.126,25.779,14,29.724,14
		c2.5,0,4.999,0,7.499,0c0.834-0.013,1.088,0.748,0.307,1.173l-3.168,1.718h-1.457c1.887,1.941,2.712,4.698,2.213,7.354
		c-0.256,1.358-0.934,2.568-1.854,3.586c-0.937,1.035-2.135,1.751-3.021,2.831c-0.353,0.428-0.43,1.311-0.028,1.736
		c1.355,1.418,3.079,2.436,4.456,3.849C36.986,38.626,37.492,42.048,35.998,45.018z M53,34h-6v6h-4v-6h-6v-4h6v-6h4v6h6V34z"/>
  <path fill="#ffffff" d="M27.591,28.593c0.505-0.221,0.927-0.491,1.245-0.808c0.45-0.448,0.718-0.929,0.821-1.466
		c0.584-3.041-0.467-6.874-2.964-8.834c-0.634-0.493-1.347-0.736-2.187-0.736c-0.533,0-1.061,0.123-1.572,0.365
		c-0.517,0.245-0.924,0.556-1.246,0.956c-0.351,0.43-0.586,0.901-0.707,1.401c-0.694,2.971,0.419,6.801,2.851,8.71
		C24.895,29.013,26.368,29.122,27.591,28.593z"/>
 </g>
</svg>
